# xmcd
#
# Track frame offsets: 
#        150
#        14272
#        25852
#        39287
#        48560
#        62010
#        75997
#        88929
#        100895
#        114377
#        137602
#        151297
#        162867
#        174930
#        187017
#        198487
#        212852
#        225987
#        242092
#        253785
#
# Disc length: 3599 seconds
#
# Revision: 4
# Processed by: cddbd v1.5.2PL0 Copyright (c) Steve Scherf et al.
# Submitted via: ExactAudioCopy v1.0b1
#
DISCID=fe0e0d14
DTITLE=Various Artist - Only Country 1975-1979
DYEAR=1995
DGENRE=Country
TTITLE0=Don Williams - Tulsa Time
TTITLE1=Freddy Fender - Before The Next Teardrop Falls
TTITLE2=Emmylou Harris - Sweet Dreams
TTITLE3=Willie Nelson - If You've Got The Money I've Got The Time
TTITLE4=Glen Campbell - Southern Nights
TTITLE5=Barbara Mandrell - (If Loving You Is Wrong) I Don't Want To Be
TTITLE5=Right
TTITLE6=Conway Twitty - Happy Birthday Darlin'
TTITLE7=Larry Gatlin And The Gatlin Brothers - All The Gold In Califor
TTITLE7=nia
TTITLE8=Mickey Gilley - Don't The Girls All Get Prettier At Closing Ti
TTITLE8=me
TTITLE9=Red Sovine - Teddy Bear
TTITLE10=Tammy Wynette - Til I Can Make It On My Own
TTITLE11=Marty Robbins - Among My Souvenirs
TTITLE12=Moe Bandy - It's A Cheating Situation
TTITLE13=Charlie Rich - Rollin' With The Flow
TTITLE14=Connie Smith - ('Til) I Kissed You
TTITLE15=Johnny Duncan And Janie Frickie - Come A Little Bit Closer
TTITLE16=Crystal Gayle - Talking In Your Sleep
TTITLE17=Johnny Rodriguez - Down On The Rio Grande
TTITLE18=Moe Bandy And Joe Stampley - Just Good Ol' Boys
TTITLE19=Charlie Daniels Band - The Devil Went Down To Georgia
EXTD=YEAR: 1995
EXTT0=
EXTT1=
EXTT2=
EXTT3=
EXTT4=
EXTT5=
EXTT6=
EXTT7=
EXTT8=
EXTT9=
EXTT10=
EXTT11=
EXTT12=
EXTT13=
EXTT14=
EXTT15=
EXTT16=
EXTT17=
EXTT18=
EXTT19=
PLAYORDER=
